<svg xmlns="http://www.w3.org/2000/svg" fill="#292c34" viewBox="0 0 215.2 235.1"><path d="M0 42.6c0-6 1.1-11.5 3.4-16.7 2.3-5.2 5.3-9.7 9.1-13.6 3.8-3.9 8.3-6.9 13.6-9.1C31.4 1.1 36.9 0 42.6 0c10.5 0 19.6 3.7 27.2 11 7.6 7.3 13.8 16.3 18.6 27s8.3 21.7 10.5 33c2.2 11.3 3.3 21.9 3.3 31.8 0 40.6-17.3 81.6-51.9 123.1-6.2 6.2-13.2 9.3-21 9.3-8 0-14.9-2.9-20.6-8.6C2.9 220.8 0 214 0 205.9c0-3.9.8-7.9 2.4-12 10.3-25.2 15.5-49.2 15.5-71.9 0-21.5-4.7-42.4-14.1-62.6C1.3 53.7 0 48.1 0 42.6zm113.1 0c0-6 1.1-11.5 3.4-16.7 2.3-5.2 5.3-9.7 9.1-13.6 3.8-3.9 8.3-6.9 13.6-9.1C144.5 1.1 150 0 155.7 0c10.5 0 19.6 3.7 27.2 11 7.6 7.3 13.8 16.3 18.6 27 4.8 10.7 8.3 21.7 10.5 33 2.2 11.3 3.3 21.9 3.3 31.8 0 40.6-17.3 81.6-51.9 123.1-6.2 6.2-13.2 9.3-21 9.3-8 0-14.9-2.9-20.6-8.6-5.7-5.7-8.6-12.6-8.6-20.6 0-3.9.8-7.9 2.4-12 10.3-25.2 15.5-49.2 15.5-71.9 0-21.5-4.7-42.4-14.1-62.6-2.6-5.8-3.9-11.4-3.9-16.9z"/></svg>